{"accessors" : [{"bufferView" : 0, "byteOffset" : 0, "componentType" : 5123, "count" : 276, "type" : "SCALAR", "max" : [260], "min" : [0]}, {"bufferView" : 1, "byteOffset" : 0, "componentType" : 5126, "count" : 261, "type" : "VEC3", "max" : [29.02680015563965, 2.658600091934204, -21.99920082092285], "min" : [13.563699722290039, 0, -50.522499084472656], "name" : "POSITION"}, {"bufferView" : 1, "byteOffset" : 12, "componentType" : 5126, "count" : 261, "type" : "VEC3", "max" : [1.0000044107437134, 1.0000044107437134, 0.6655018329620361], "min" : [-0.7464020848274231, -1.0000044107437134, -0.8103926777839661], "name" : "NORMAL"}, {"bufferView" : 0, "byteOffset" : 552, "componentType" : 5123, "count" : 276, "type" : "SCALAR", "max" : [261], "min" : [0]}, {"bufferView" : 2, "byteOffset" : 0, "componentType" : 5126, "count" : 262, "type" : "VEC3", "max" : [-3.4612998962402344, 2.658600091934204, -21.99920082092285], "min" : [-18.924400329589844, 0, -50.522499084472656], "name" : "POSITION"}, {"bufferView" : 2, "byteOffset" : 12, "componentType" : 5126, "count" : 262, "type" : "VEC3", "max" : [0.7464020848274231, 1.0000044107437134, 0.6655018329620361], "min" : [-1.0000044107437134, -1.0000044107437134, -0.8103926777839661], "name" : "NORMAL"}, {"bufferView" : 0, "byteOffset" : 1104, "componentType" : 5123, "count" : 1380, "type" : "SCALAR", "max" : [1245], "min" : [0]}, {"bufferView" : 3, "byteOffset" : 0, "componentType" : 5126, "count" : 1246, "type" : "VEC3", "max" : [28.036699295043945, 2.676800012588501, -6.203199863433838], "min" : [-18.270299911499023, 0.01810000091791153, -38.64680099487305], "name" : "POSITION"}, {"bufferView" : 3, "byteOffset" : 12, "componentType" : 5126, "count" : 1246, "type" : "VEC2", "max" : [0.3025999963283539, 16.36639976501465], "min" : [-22.824899673461914, -16.07710075378418], "name" : "TEXCOORD_0"}, {"bufferView" : 3, "byteOffset" : 20, "componentType" : 5126, "count" : 1246, "type" : "VEC3", "max" : [0.9998729825019836, 1.0000044107437134, 1.0000041723251343], "min" : [-0.9998729825019836, -1.0000044107437134, -0.9999464750289917], "name" : "NORMAL"}, {"bufferView" : 0, "byteOffset" : 3864, "componentType" : 5123, "count" : 2724, "type" : "SCALAR", "max" : [2576], "min" : [0]}, {"bufferView" : 4, "byteOffset" : 0, "componentType" : 5126, "count" : 2577, "type" : "VEC3", "max" : [28.857999801635742, 2.658600091934204, 20.590599060058594], "min" : [-18.93779945373535, 0, 11.29800033569336], "name" : "POSITION"}, {"bufferView" : 4, "byteOffset" : 12, "componentType" : 5126, "count" : 2577, "type" : "VEC3", "max" : [1.0000044107437134, 1.0000044107437134, 1.0000044107437134], "min" : [-1.0000044107437134, -1.0000044107437134, -1.0000044107437134], "name" : "NORMAL"}, {"bufferView" : 0, "byteOffset" : 9312, "componentType" : 5123, "count" : 42732, "type" : "SCALAR", "max" : [37295], "min" : [0]}, {"bufferView" : 5, "byteOffset" : 0, "componentType" : 5126, "count" : 37296, "type" : "VEC3", "max" : [15.662300109863281, 2.658600091934204, 30.797000885009766], "min" : [-6.5609002113342285, 0, 26.83880043029785], "name" : "POSITION"}, {"bufferView" : 5, "byteOffset" : 12, "componentType" : 5126, "count" : 37296, "type" : "VEC3", "max" : [1.0000044107437134, 1.0000044107437134, 1.0000044107437134], "min" : [-1.0000044107437134, -1.0000044107437134, -1.0000044107437134], "name" : "NORMAL"}], "asset" : {"generator" : "Aspose.3D 23.12.0", "version" : "2.0"}, "buffers" : [{"uri" : "data:application/octet-stream;base64,", "byteLength" : 1243152}], "bufferViews" : [{"buffer" : 0, "byteOffset" : 0, "byteLength" : 94776, "target" : 34963}, {"buffer" : 0, "byteOffset" : 94780, "byteLength" : 6624, "byteStride" : 24, "target" : 34962}, {"buffer" : 0, "byteOffset" : 101408, "byteLength" : 6624, "byteStride" : 24, "target" : 34962}, {"buffer" : 0, "byteOffset" : 108036, "byteLength" : 44160, "byteStride" : 32, "target" : 34962}, {"buffer" : 0, "byteOffset" : 152200, "byteLength" : 65376, "byteStride" : 24, "target" : 34962}, {"buffer" : 0, "byteOffset" : 217580, "byteLength" : 1025568, "byteStride" : 24, "target" : 34962}], "meshes" : [{"primitives" : [{"attributes" : {"POSITION" : 1, "NORMAL" : 2}, "indices" : 0, "mode" : 4}], "name" : ""}, {"primitives" : [{"attributes" : {"POSITION" : 4, "NORMAL" : 5}, "indices" : 3, "mode" : 4}], "name" : ""}, {"primitives" : [{"attributes" : {"POSITION" : 7, "TEXCOORD_0" : 8, "NORMAL" : 9}, "indices" : 6, "mode" : 4}], "name" : ""}, {"primitives" : [{"attributes" : {"POSITION" : 11, "NORMAL" : 12}, "indices" : 10, "mode" : 4}], "name" : ""}, {"primitives" : [{"attributes" : {"POSITION" : 14, "NORMAL" : 15}, "indices" : 13, "mode" : 4}], "name" : ""}], "nodes" : [{"mesh" : 0, "name" : "Line001"}, {"mesh" : 1, "name" : "Line002"}, {"mesh" : 2, "name" : "Line006"}, {"mesh" : 3, "name" : "Text001"}, {"mesh" : 4, "name" : "Text002"}], "scene" : 0, "scenes" : [{"nodes" : [0, 1, 2, 3, 4]}]}